<svg xmlns="http://www.w3.org/2000/svg" xmlns:xlink="http://www.w3.org/1999/xlink" version="1.1" data-diagram-type="ACTIVITY" style="width:1143px;height:467px;background:#FFFFFF;" width="1143px" height="467px" viewBox="0 0 1143 467" zoomAndPan="magnify" preserveAspectRatio="none" contentStyleType="text/css"><?plantuml 1.2026.8?><defs/><g font-family="sans-serif" lengthAdjust="spacing"><rect x="20" y="17.455" width="1096.946" height="22.641" fill="none" style="stroke:none;"/><ellipse cx="118.907" cy="55.096" rx="10" ry="10" fill="#222" style="stroke:#222;stroke-width:1;"/><rect x="26" y="85.096" width="185.814" height="50.188" fill="#F1F1F1" style="stroke:#181818;stroke-width:0.5;" rx="12.5" ry="12.5"/><text x="36" y="107.553" fill="#000" font-size="12" textLength="165.814">Наступило 07:00 по часовому</text><text x="36" y="122.646" fill="#000" font-size="12" textLength="121.207">поясу подразделения</text><line x1="20" y1="17.455" x2="20" y2="446.564" style="stroke:#000;stroke-width:1.5;"/><rect x="221.814" y="155.283" width="491.627" height="6" fill="#555" style="stroke:#555;stroke-width:1;" rx="2.5" ry="2.5"/><rect x="233.814" y="181.283" width="221.176" height="35.094" fill="#F1F1F1" style="stroke:#181818;stroke-width:0.5;" rx="12.5" ry="12.5"/><text x="243.814" y="203.74" fill="#000" font-size="12" textLength="201.176">Разблокировать учётную запись AD</text><rect x="482.082" y="181.283" width="219.359" height="35.094" fill="#F1F1F1" style="stroke:#181818;stroke-width:0.5;" rx="12.5" ry="12.5"/><text x="492.082" y="203.74" fill="#000" font-size="12" textLength="199.359">Разблокировать пользователя АБС</text><rect x="221.814" y="236.377" width="491.627" height="6" fill="#555" style="stroke:#555;stroke-width:1;" rx="2.5" ry="2.5"/><line x1="215.814" y1="17.455" x2="215.814" y2="446.564" style="stroke:#000;stroke-width:1.5;"/><rect x="804.852" y="262.377" width="225.184" height="35.094" fill="#F1F1F1" style="stroke:#181818;stroke-width:0.5;" rx="12.5" ry="12.5"/><text x="814.852" y="284.834" fill="#000" font-size="12" textLength="205.184">Сгенерировать одноразовый пароль</text><rect x="723.441" y="317.471" width="388.004" height="6" fill="#555" style="stroke:#555;stroke-width:1;" rx="2.5" ry="2.5"/><rect x="735.441" y="343.471" width="174.6" height="35.094" fill="#F1F1F1" style="stroke:#181818;stroke-width:0.5;" rx="12.5" ry="12.5"/><text x="745.441" y="365.928" fill="#000" font-size="12" textLength="154.6">Отправить SMS сотруднику</text><rect x="938.041" y="343.471" width="161.404" height="35.094" fill="#F1F1F1" style="stroke:#181818;stroke-width:0.5;" rx="12.5" ry="12.5"/><text x="948.041" y="365.928" fill="#000" font-size="12" textLength="141.404">Уведомить руководителя</text><rect x="723.441" y="398.564" width="388.004" height="6" fill="#555" style="stroke:#555;stroke-width:1;" rx="2.5" ry="2.5"/><ellipse cx="917.443" cy="435.564" rx="11" ry="11" fill="none" style="stroke:#222;stroke-width:1;"/><ellipse cx="917.443" cy="435.564" rx="6" ry="6" fill="#222" style="stroke:#222;stroke-width:1;"/><line x1="717.441" y1="17.455" x2="717.441" y2="446.564" style="stroke:#000;stroke-width:1.5;"/><line x1="1115.445" y1="17.455" x2="1115.445" y2="446.564" style="stroke:#000;stroke-width:1.5;"/><line x1="118.907" y1="65.096" x2="118.907" y2="85.096" style="stroke:#181818;stroke-width:1;"/><polygon points="114.907,75.096,118.907,85.096,122.907,75.096,118.907,79.096" fill="#181818" style="stroke:#181818;stroke-width:1;stroke-linejoin:miter;stroke-miterlimit:10;"/><line x1="344.402" y1="161.283" x2="344.402" y2="181.283" style="stroke:#181818;stroke-width:1;"/><polygon points="340.402,171.283,344.402,181.283,348.402,171.283,344.402,175.283" fill="#181818" style="stroke:#181818;stroke-width:1;stroke-linejoin:miter;stroke-miterlimit:10;"/><line x1="591.762" y1="161.283" x2="591.762" y2="181.283" style="stroke:#181818;stroke-width:1;"/><polygon points="587.762,171.283,591.762,181.283,595.762,171.283,591.762,175.283" fill="#181818" style="stroke:#181818;stroke-width:1;stroke-linejoin:miter;stroke-miterlimit:10;"/><line x1="344.402" y1="216.377" x2="344.402" y2="236.377" style="stroke:#181818;stroke-width:1;"/><polygon points="340.402,226.377,344.402,236.377,348.402,226.377,344.402,230.377" fill="#181818" style="stroke:#181818;stroke-width:1;stroke-linejoin:miter;stroke-miterlimit:10;"/><line x1="591.762" y1="216.377" x2="591.762" y2="236.377" style="stroke:#181818;stroke-width:1;"/><polygon points="587.762,226.377,591.762,236.377,595.762,226.377,591.762,230.377" fill="#181818" style="stroke:#181818;stroke-width:1;stroke-linejoin:miter;stroke-miterlimit:10;"/><line x1="822.741" y1="323.471" x2="822.741" y2="343.471" style="stroke:#181818;stroke-width:1;"/><polygon points="818.741,333.471,822.741,343.471,826.741,333.471,822.741,337.471" fill="#181818" style="stroke:#181818;stroke-width:1;stroke-linejoin:miter;stroke-miterlimit:10;"/><line x1="1018.743" y1="323.471" x2="1018.743" y2="343.471" style="stroke:#181818;stroke-width:1;"/><polygon points="1014.743,333.471,1018.743,343.471,1022.743,333.471,1018.743,337.471" fill="#181818" style="stroke:#181818;stroke-width:1;stroke-linejoin:miter;stroke-miterlimit:10;"/><line x1="822.741" y1="378.564" x2="822.741" y2="398.564" style="stroke:#181818;stroke-width:1;"/><polygon points="818.741,388.564,822.741,398.564,826.741,388.564,822.741,392.564" fill="#181818" style="stroke:#181818;stroke-width:1;stroke-linejoin:miter;stroke-miterlimit:10;"/><line x1="1018.743" y1="378.564" x2="1018.743" y2="398.564" style="stroke:#181818;stroke-width:1;"/><polygon points="1014.743,388.564,1018.743,398.564,1022.743,388.564,1018.743,392.564" fill="#181818" style="stroke:#181818;stroke-width:1;stroke-linejoin:miter;stroke-miterlimit:10;"/><line x1="917.443" y1="297.471" x2="917.443" y2="317.471" style="stroke:#181818;stroke-width:1;"/><polygon points="913.443,307.471,917.443,317.471,921.443,307.471,917.443,311.471" fill="#181818" style="stroke:#181818;stroke-width:1;stroke-linejoin:miter;stroke-miterlimit:10;"/><line x1="917.443" y1="404.564" x2="917.443" y2="424.564" style="stroke:#181818;stroke-width:1;"/><polygon points="913.443,414.564,917.443,424.564,921.443,414.564,917.443,418.564" fill="#181818" style="stroke:#181818;stroke-width:1;stroke-linejoin:miter;stroke-miterlimit:10;"/><line x1="118.907" y1="135.283" x2="118.907" y2="140.283" style="stroke:#181818;stroke-width:1;"/><line x1="118.907" y1="140.283" x2="468.082" y2="140.283" style="stroke:#181818;stroke-width:1;"/><line x1="468.082" y1="140.283" x2="468.082" y2="155.283" style="stroke:#181818;stroke-width:1;"/><polygon points="464.082,145.283,468.082,155.283,472.082,145.283,468.082,149.283" fill="#181818" style="stroke:#181818;stroke-width:1;stroke-linejoin:miter;stroke-miterlimit:10;"/><line x1="468.082" y1="242.377" x2="468.082" y2="247.377" style="stroke:#181818;stroke-width:1;"/><line x1="468.082" y1="247.377" x2="917.443" y2="247.377" style="stroke:#181818;stroke-width:1;"/><line x1="917.443" y1="247.377" x2="917.443" y2="262.377" style="stroke:#181818;stroke-width:1;"/><polygon points="913.443,252.377,917.443,262.377,921.443,252.377,917.443,256.377" fill="#181818" style="stroke:#181818;stroke-width:1;stroke-linejoin:miter;stroke-miterlimit:10;"/><text x="60.022" y="36.141" fill="#000" font-size="18" textLength="115.77">Планировщик</text><text x="374.312" y="36.141" fill="#000" font-size="18" textLength="184.632">Сервис провижининга</text><text x="877.178" y="36.141" fill="#000" font-size="18" textLength="78.53">Ядро IdM</text><?plantuml-src XLBDJjj04BxxAOOJS42AUa5AJgYzSE24UkEo8Y6r84uKkqL8FX0iG8Y8b0S06lK1kWGx68ETLvXv8xxPWAZWWEoLTcTdvlkPNUZrJRjZQCyST7z657PQaGcCjqXhsv7_ouyEI0R4ALToo1LFkM3BJvoJ_ZEsY5f-n9VnemovHDv0ZcGe5tN2JI57dFC4UIUSouXuehqoBcM8lPpBCPgcR6df-zULsXT2-umVPC1ssGjt_Q1d-gP3uG_JxExxGPjsp5xOycA-0Q85MkvOJUGCA4NiXP7fHrwThm2eD19Gp95QKMsrNgifuuhaL6-r3Ej9agr0mp92HU8oE7MgxXrJLQOuemPWnvpXQe8ZF9dDiG4mnIhTkcCRUplT_gv7LES_hikj4e2m5wu0XpyaYPpA9UmfiRiWv5ab2n93MllMS4t8j8qVVDhASLRtxr-3RXfm-pTVyhZXjO8cEL8n_tFYAbflRiGmQWp6gazblMkgSodTsEsyiPppm-lC7LxZJUarC6SkLStH-isDJLANSJZ4759dK2791sL_KPBf0zDdDRT62ugN0QKQdElvJqWOTNlF?></g></svg>