<svg xmlns="http://www.w3.org/2000/svg" xmlns:xlink="http://www.w3.org/1999/xlink" version="1.1" data-diagram-type="SEQUENCE" style="width:1738px;height:924px;background:#FFFFFF;" width="1738px" height="924px" viewBox="0 0 1738 924" zoomAndPan="magnify" preserveAspectRatio="none" contentStyleType="text/css"><?plantuml 1.2026.8?><defs/><g font-family="sans-serif" lengthAdjust="spacing"><g class="title" data-source-line="1"><text x="667.177" y="29.533" fill="#000" font-size="14" textLength="402.117" font-weight="700">SEQ-03. Отмена приёма после создания учётных записей</text></g><rect x="591.396" y="306.328" width="1103.512" height="505.813" fill="none" style="stroke:#000;stroke-width:1.5;"/><g><title>HRMS</title><rect x="34.11" y="126.219" width="8" height="709.922" fill="#000" fill-opacity="0"/><line x1="37.61" y1="126.219" x2="37.61" y2="836.141" style="stroke:#181818;stroke-width:0.5;stroke-dasharray:5,5;"/></g><g><title>Kafka</title><rect x="285.364" y="126.219" width="8" height="709.922" fill="#000" fill-opacity="0"/><line x1="288.864" y1="126.219" x2="288.864" y2="836.141" style="stroke:#181818;stroke-width:0.5;stroke-dasharray:5,5;"/></g><g><title>..........</title><rect x="376.136" y="126.219" width="8" height="709.922" fill="#000" fill-opacity="0"/><line x1="379.636" y1="126.219" x2="379.636" y2="836.141" style="stroke:#181818;stroke-width:0.5;stroke-dasharray:5,5;"/></g><g><title>.... IdM</title><rect x="603.896" y="126.219" width="8" height="709.922" fill="#000" fill-opacity="0"/><line x1="607.396" y1="126.219" x2="607.396" y2="836.141" style="stroke:#181818;stroke-width:0.5;stroke-dasharray:5,5;"/></g><g><title>.. IdM</title><rect x="1030.574" y="126.219" width="8" height="709.922" fill="#000" fill-opacity="0"/><line x1="1034.074" y1="126.219" x2="1034.074" y2="836.141" style="stroke:#181818;stroke-width:0.5;stroke-dasharray:5,5;"/></g><g><title>......</title><rect x="1119.408" y="126.219" width="8" height="709.922" fill="#000" fill-opacity="0"/><line x1="1122.908" y1="126.219" x2="1122.908" y2="836.141" style="stroke:#181818;stroke-width:0.5;stroke-dasharray:5,5;"/></g><g><title>AD</title><rect x="1299.892" y="126.219" width="8" height="709.922" fill="#000" fill-opacity="0"/><line x1="1303.392" y1="126.219" x2="1303.392" y2="836.141" style="stroke:#181818;stroke-width:0.5;stroke-dasharray:5,5;"/></g><g><title>Exchange</title><rect x="1364.75" y="126.219" width="8" height="709.922" fill="#000" fill-opacity="0"/><line x1="1368.25" y1="126.219" x2="1368.25" y2="836.141" style="stroke:#181818;stroke-width:0.5;stroke-dasharray:5,5;"/></g><g><title>....... ...</title><rect x="1463.576" y="126.219" width="8" height="709.922" fill="#000" fill-opacity="0"/><line x1="1467.076" y1="126.219" x2="1467.076" y2="836.141" style="stroke:#181818;stroke-width:0.5;stroke-dasharray:5,5;"/></g><g><title>ServiceDesk</title><rect x="1570.558" y="126.219" width="8" height="709.922" fill="#000" fill-opacity="0"/><line x1="1574.058" y1="126.219" x2="1574.058" y2="836.141" style="stroke:#181818;stroke-width:0.5;stroke-dasharray:5,5;"/></g><g><title>............</title><rect x="1675.409" y="126.219" width="8" height="709.922" fill="#000" fill-opacity="0"/><line x1="1678.909" y1="126.219" x2="1678.909" y2="836.141" style="stroke:#181818;stroke-width:0.5;stroke-dasharray:5,5;"/></g><rect x="10" y="93.609" width="55.221" height="31.609" fill="#E2E2F0" style="stroke:#181818;stroke-width:0.5;" rx="2.5" ry="2.5"/><text x="17" y="115.143" fill="#000" font-size="14" textLength="41.221">HRMS</text><path d="M265.964,98.609 L311.764,98.609 C316.764,98.609 316.764,112.414 316.764,112.414 C316.764,112.414 316.764,126.219 311.764,126.219 L265.964,126.219 C260.964,126.219 260.964,112.414 260.964,112.414 C260.964,112.414 260.964,98.609 265.964,98.609" style="stroke:#181818;stroke-width:0.5;" fill="#E2E2F0"/><path d="M311.764,98.609 C306.764,98.609 306.764,112.414 306.764,112.414 C306.764,126.219 311.764,126.219 311.764,126.219" style="stroke:#181818;stroke-width:0.5;" fill="none"/><text x="265.964" y="118.143" fill="#000" font-size="14" textLength="35.8">Kafka</text><rect x="333.667" y="76" width="91.937" height="49.219" fill="#E2E2F0" style="stroke:#181818;stroke-width:0.5;" rx="2.5" ry="2.5"/><text x="340.667" y="97.533" fill="#000" font-size="14" textLength="77.937">Обработчик</text><text x="352.176" y="115.143" fill="#000" font-size="14" textLength="54.92">событий</text><rect x="569.857" y="93.609" width="75.079" height="31.609" fill="#E2E2F0" style="stroke:#181818;stroke-width:0.5;" rx="2.5" ry="2.5"/><text x="576.857" y="115.143" fill="#000" font-size="14" textLength="61.079">Ядро IdM</text><text x="1008.125" y="123.143" fill="#000" font-size="14" textLength="45.896">БД IdM</text><path d="M1016.074,72.609 C1016.074,62.609 1034.074,62.609 1034.074,62.609 C1034.074,62.609 1052.074,62.609 1052.074,72.609 L1052.074,98.609 C1052.074,108.609 1034.074,108.609 1034.074,108.609 C1034.074,108.609 1016.074,108.609 1016.074,98.609 L1016.074,72.609" style="stroke:#181818;stroke-width:0.5;" fill="#E2E2F0"/><path d="M1016.074,72.609 C1016.074,82.609 1034.074,82.609 1034.074,82.609 C1034.074,82.609 1052.074,82.609 1052.074,72.609" style="stroke:#181818;stroke-width:0.5;" fill="none"/><rect x="1070.022" y="76" width="105.772" height="49.219" fill="#E2E2F0" style="stroke:#181818;stroke-width:0.5;" rx="2.5" ry="2.5"/><text x="1098.938" y="97.533" fill="#000" font-size="14" textLength="47.94">Сервис</text><text x="1077.022" y="115.143" fill="#000" font-size="14" textLength="91.772">провижининга</text><rect x="1286.667" y="93.609" width="33.448" height="31.609" fill="#E2E2F0" style="stroke:#181818;stroke-width:0.5;" rx="2.5" ry="2.5"/><text x="1293.667" y="115.143" fill="#000" font-size="14" textLength="19.448">AD</text><rect x="1330.116" y="93.609" width="76.269" height="31.609" fill="#E2E2F0" style="stroke:#181818;stroke-width:0.5;" rx="2.5" ry="2.5"/><text x="1337.116" y="115.143" fill="#000" font-size="14" textLength="62.269">Exchange</text><rect x="1416.384" y="93.609" width="101.384" height="31.609" fill="#E2E2F0" style="stroke:#181818;stroke-width:0.5;" rx="2.5" ry="2.5"/><text x="1423.384" y="115.143" fill="#000" font-size="14" textLength="87.384">Адаптер АБС</text><rect x="1527.768" y="93.609" width="92.579" height="31.609" fill="#E2E2F0" style="stroke:#181818;stroke-width:0.5;" rx="2.5" ry="2.5"/><text x="1534.768" y="115.143" fill="#000" font-size="14" textLength="78.579">ServiceDesk</text><text x="1630.347" y="123.143" fill="#000" font-size="14" textLength="91.123">Руководитель</text><ellipse cx="1678.909" cy="57.109" rx="8" ry="8" fill="#E2E2F0" style="stroke:#181818;stroke-width:0.5;"/><path d="M1678.909,65.109 L1678.909,92.109 M1665.909,73.109 L1691.909,73.109 M1678.909,92.109 L1665.909,107.109 M1678.909,92.109 L1691.909,107.109" style="stroke:#181818;stroke-width:0.5;" fill="none"/><rect x="10" y="836.141" width="55.221" height="31.609" fill="#E2E2F0" style="stroke:#181818;stroke-width:0.5;" rx="2.5" ry="2.5"/><text x="17" y="857.674" fill="#000" font-size="14" textLength="41.221">HRMS</text><path d="M265.964,836.141 L311.764,836.141 C316.764,836.141 316.764,849.945 316.764,849.945 C316.764,849.945 316.764,863.75 311.764,863.75 L265.964,863.75 C260.964,863.75 260.964,849.945 260.964,849.945 C260.964,849.945 260.964,836.141 265.964,836.141" style="stroke:#181818;stroke-width:0.5;" fill="#E2E2F0"/><path d="M311.764,836.141 C306.764,836.141 306.764,849.945 306.764,849.945 C306.764,863.75 311.764,863.75 311.764,863.75" style="stroke:#181818;stroke-width:0.5;" fill="none"/><text x="265.964" y="855.674" fill="#000" font-size="14" textLength="35.8">Kafka</text><rect x="333.667" y="836.141" width="91.937" height="49.219" fill="#E2E2F0" style="stroke:#181818;stroke-width:0.5;" rx="2.5" ry="2.5"/><text x="340.667" y="857.674" fill="#000" font-size="14" textLength="77.937">Обработчик</text><text x="352.176" y="875.283" fill="#000" font-size="14" textLength="54.92">событий</text><rect x="569.857" y="836.141" width="75.079" height="31.609" fill="#E2E2F0" style="stroke:#181818;stroke-width:0.5;" rx="2.5" ry="2.5"/><text x="576.857" y="857.674" fill="#000" font-size="14" textLength="61.079">Ядро IdM</text><text x="1008.125" y="850.674" fill="#000" font-size="14" textLength="45.896">БД IdM</text><path d="M1016.074,863.75 C1016.074,853.75 1034.074,853.75 1034.074,853.75 C1034.074,853.75 1052.074,853.75 1052.074,863.75 L1052.074,889.75 C1052.074,899.75 1034.074,899.75 1034.074,899.75 C1034.074,899.75 1016.074,899.75 1016.074,889.75 L1016.074,863.75" style="stroke:#181818;stroke-width:0.5;" fill="#E2E2F0"/><path d="M1016.074,863.75 C1016.074,873.75 1034.074,873.75 1034.074,873.75 C1034.074,873.75 1052.074,873.75 1052.074,863.75" style="stroke:#181818;stroke-width:0.5;" fill="none"/><rect x="1070.022" y="836.141" width="105.772" height="49.219" fill="#E2E2F0" style="stroke:#181818;stroke-width:0.5;" rx="2.5" ry="2.5"/><text x="1098.938" y="857.674" fill="#000" font-size="14" textLength="47.94">Сервис</text><text x="1077.022" y="875.283" fill="#000" font-size="14" textLength="91.772">провижининга</text><rect x="1286.667" y="836.141" width="33.448" height="31.609" fill="#E2E2F0" style="stroke:#181818;stroke-width:0.5;" rx="2.5" ry="2.5"/><text x="1293.667" y="857.674" fill="#000" font-size="14" textLength="19.448">AD</text><rect x="1330.116" y="836.141" width="76.269" height="31.609" fill="#E2E2F0" style="stroke:#181818;stroke-width:0.5;" rx="2.5" ry="2.5"/><text x="1337.116" y="857.674" fill="#000" font-size="14" textLength="62.269">Exchange</text><rect x="1416.384" y="836.141" width="101.384" height="31.609" fill="#E2E2F0" style="stroke:#181818;stroke-width:0.5;" rx="2.5" ry="2.5"/><text x="1423.384" y="857.674" fill="#000" font-size="14" textLength="87.384">Адаптер АБС</text><rect x="1527.768" y="836.141" width="92.579" height="31.609" fill="#E2E2F0" style="stroke:#181818;stroke-width:0.5;" rx="2.5" ry="2.5"/><text x="1534.768" y="857.674" fill="#000" font-size="14" textLength="78.579">ServiceDesk</text><text x="1630.347" y="850.674" fill="#000" font-size="14" textLength="91.123">Руководитель</text><ellipse cx="1678.909" cy="862.25" rx="8" ry="8" fill="#E2E2F0" style="stroke:#181818;stroke-width:0.5;"/><path d="M1678.909,870.25 L1678.909,897.25 M1665.909,878.25 L1691.909,878.25 M1678.909,897.25 L1665.909,912.25 M1678.909,897.25 L1691.909,912.25" style="stroke:#181818;stroke-width:0.5;" fill="none"/><line x1="286.864" y1="156.57" x2="276.864" y2="152.57" style="stroke:#181818;stroke-width:1;"/><line x1="286.864" y1="156.57" x2="276.864" y2="160.57" style="stroke:#181818;stroke-width:1;"/><line x1="37.61" y1="156.57" x2="287.864" y2="156.57" style="stroke:#181818;stroke-width:1;"/><text x="44.61" y="151.714" fill="#000" font-size="13" font-weight="700">1</text><text x="55.84" y="151.714" fill="#000" font-size="13" textLength="216.023">EmployeeEvent(HIRE_CANCELLED)</text><line x1="377.636" y1="186.922" x2="367.636" y2="182.922" style="stroke:#181818;stroke-width:1;"/><line x1="377.636" y1="186.922" x2="367.636" y2="190.922" style="stroke:#181818;stroke-width:1;"/><line x1="288.864" y1="186.922" x2="378.636" y2="186.922" style="stroke:#181818;stroke-width:1;"/><text x="295.864" y="182.065" fill="#000" font-size="13" font-weight="700">2</text><text x="307.094" y="182.065" fill="#000" font-size="13" textLength="55.542">Доставка</text><polygon points="595.396,213.273,605.396,217.273,595.396,221.273,599.396,217.273" fill="#181818" style="stroke:#181818;stroke-width:1;stroke-linejoin:miter;stroke-miterlimit:10;"/><line x1="379.636" y1="217.273" x2="601.396" y2="217.273" style="stroke:#181818;stroke-width:1;"/><text x="386.636" y="212.417" fill="#000" font-size="13" font-weight="700">3</text><text x="397.866" y="212.417" fill="#000" font-size="13" textLength="192.531">Обработать HIRE_CANCELLED</text><polygon points="1022.074,243.625,1032.074,247.625,1022.074,251.625,1026.074,247.625" fill="#181818" style="stroke:#181818;stroke-width:1;stroke-linejoin:miter;stroke-miterlimit:10;"/><line x1="607.396" y1="247.625" x2="1028.074" y2="247.625" style="stroke:#181818;stroke-width:1;"/><text x="614.396" y="242.769" fill="#000" font-size="13" font-weight="700">4</text><text x="625.626" y="242.769" fill="#000" font-size="13" textLength="201.125">Загрузить identity, accounts, tasks</text><polygon points="618.396,290.328,608.396,294.328,618.396,298.328,614.396,294.328" fill="#181818" style="stroke:#181818;stroke-width:1;stroke-linejoin:miter;stroke-miterlimit:10;"/><line x1="612.396" y1="294.328" x2="1033.074" y2="294.328" style="stroke:#181818;stroke-width:1;stroke-dasharray:2,2;"/><text x="624.396" y="281.296" fill="#000" font-size="13" font-weight="700">5</text><text x="635.626" y="273.12" fill="#000" font-size="13" textLength="391.447">identity PRE_HIRE; AD, Exchange, АБС — CREATED_DISABLED;</text><text x="635.626" y="289.472" fill="#000" font-size="13" textLength="211.136">СЭД — задача MANUAL (SD-7790)</text><path d="M591.396,306.328 L651.567,306.328 L651.567,314.68 L641.567,324.68 L591.396,324.68 L591.396,306.328" style="stroke:#000;stroke-width:1.5;" fill="#EEE"/><rect x="591.396" y="306.328" width="1103.512" height="505.813" fill="none" style="stroke:#000;stroke-width:1.5;"/><text x="606.396" y="320.823" fill="#000" font-size="13" textLength="15.171" font-weight="700">alt</text><text x="666.567" y="319.747" fill="#000" font-size="11" textLength="218.244" font-weight="700">[Учётные записи ещё не активированы]</text><polygon points="1022.074,353.031,1032.074,357.031,1022.074,361.031,1026.074,357.031" fill="#181818" style="stroke:#181818;stroke-width:1;stroke-linejoin:miter;stroke-miterlimit:10;"/><line x1="607.396" y1="357.031" x2="1028.074" y2="357.031" style="stroke:#181818;stroke-width:1;"/><text x="614.396" y="352.175" fill="#000" font-size="13" font-weight="700">6</text><text x="625.626" y="352.175" fill="#000" font-size="13" textLength="263.136">Отменить задачи SCHEDULED (активация)</text><polygon points="1110.908,383.383,1120.908,387.383,1110.908,391.383,1114.908,387.383" fill="#181818" style="stroke:#181818;stroke-width:1;stroke-linejoin:miter;stroke-miterlimit:10;"/><line x1="607.396" y1="387.383" x2="1116.908" y2="387.383" style="stroke:#181818;stroke-width:1;"/><text x="614.396" y="382.526" fill="#000" font-size="13" font-weight="700">7</text><text x="625.626" y="382.526" fill="#000" font-size="13" textLength="244.467">Задачи DELETE для AD, Exchange, АБС</text><polygon points="1356.25,413.734,1366.25,417.734,1356.25,421.734,1360.25,417.734" fill="#181818" style="stroke:#181818;stroke-width:1;stroke-linejoin:miter;stroke-miterlimit:10;"/><line x1="1122.908" y1="417.734" x2="1362.25" y2="417.734" style="stroke:#181818;stroke-width:1;"/><text x="1129.908" y="412.878" fill="#000" font-size="13" font-weight="700">8</text><text x="1141.138" y="412.878" fill="#000" font-size="13" textLength="92.479">Disable-Mailbox</text><polygon points="1133.908,444.086,1123.908,448.086,1133.908,452.086,1129.908,448.086" fill="#181818" style="stroke:#181818;stroke-width:1;stroke-linejoin:miter;stroke-miterlimit:10;"/><line x1="1127.908" y1="448.086" x2="1367.25" y2="448.086" style="stroke:#181818;stroke-width:1;stroke-dasharray:2,2;"/><text x="1139.908" y="443.229" fill="#000" font-size="13" font-weight="700">9</text><text x="1151.138" y="443.229" fill="#000" font-size="13" textLength="18.783">OK</text><polygon points="1291.392,474.438,1301.392,478.438,1291.392,482.438,1295.392,478.438" fill="#181818" style="stroke:#181818;stroke-width:1;stroke-linejoin:miter;stroke-miterlimit:10;"/><line x1="1122.908" y1="478.438" x2="1297.392" y2="478.438" style="stroke:#181818;stroke-width:1;"/><text x="1129.908" y="473.581" fill="#000" font-size="13" textLength="14.46" font-weight="700">10</text><text x="1148.368" y="473.581" fill="#000" font-size="13" textLength="138.023">Удалить пользователя</text><polygon points="1133.908,504.789,1123.908,508.789,1133.908,512.789,1129.908,508.789" fill="#181818" style="stroke:#181818;stroke-width:1;stroke-linejoin:miter;stroke-miterlimit:10;"/><line x1="1127.908" y1="508.789" x2="1302.392" y2="508.789" style="stroke:#181818;stroke-width:1;stroke-dasharray:2,2;"/><text x="1139.908" y="503.933" fill="#000" font-size="13" textLength="14.46" font-weight="700">11</text><text x="1158.368" y="503.933" fill="#000" font-size="13" textLength="18.783">OK</text><polygon points="1455.076,535.141,1465.076,539.141,1455.076,543.141,1459.076,539.141" fill="#181818" style="stroke:#181818;stroke-width:1;stroke-linejoin:miter;stroke-miterlimit:10;"/><line x1="1122.908" y1="539.141" x2="1461.076" y2="539.141" style="stroke:#181818;stroke-width:1;"/><text x="1129.908" y="534.284" fill="#000" font-size="13" textLength="14.46" font-weight="700">12</text><text x="1148.368" y="534.284" fill="#000" font-size="13" textLength="129.346">DELETE /users/{login}</text><polygon points="1133.908,565.492,1123.908,569.492,1133.908,573.492,1129.908,569.492" fill="#181818" style="stroke:#181818;stroke-width:1;stroke-linejoin:miter;stroke-miterlimit:10;"/><line x1="1127.908" y1="569.492" x2="1466.076" y2="569.492" style="stroke:#181818;stroke-width:1;stroke-dasharray:2,2;"/><text x="1139.908" y="564.636" fill="#000" font-size="13" textLength="14.46" font-weight="700">13</text><text x="1158.368" y="564.636" fill="#000" font-size="13" textLength="21.69">204</text><polygon points="1562.058,595.844,1572.058,599.844,1562.058,603.844,1566.058,599.844" fill="#181818" style="stroke:#181818;stroke-width:1;stroke-linejoin:miter;stroke-miterlimit:10;"/><line x1="1122.908" y1="599.844" x2="1568.058" y2="599.844" style="stroke:#181818;stroke-width:1;"/><text x="1129.908" y="594.987" fill="#000" font-size="13" textLength="14.46" font-weight="700">14</text><text x="1148.368" y="594.987" fill="#000" font-size="13" textLength="159.212">Отменить задачу SD-7790</text><polygon points="1133.908,626.195,1123.908,630.195,1133.908,634.195,1129.908,630.195" fill="#181818" style="stroke:#181818;stroke-width:1;stroke-linejoin:miter;stroke-miterlimit:10;"/><line x1="1127.908" y1="630.195" x2="1573.058" y2="630.195" style="stroke:#181818;stroke-width:1;stroke-dasharray:2,2;"/><text x="1139.908" y="625.339" fill="#000" font-size="13" textLength="14.46" font-weight="700">15</text><text x="1158.368" y="625.339" fill="#000" font-size="13" textLength="18.783">OK</text><polygon points="1022.074,672.898,1032.074,676.898,1022.074,680.898,1026.074,676.898" fill="#181818" style="stroke:#181818;stroke-width:1;stroke-linejoin:miter;stroke-miterlimit:10;"/><line x1="607.396" y1="676.898" x2="1028.074" y2="676.898" style="stroke:#181818;stroke-width:1;"/><text x="614.396" y="663.866" fill="#000" font-size="13" textLength="14.46" font-weight="700">16</text><text x="632.856" y="655.69" fill="#000" font-size="13" textLength="278.922">accounts → DELETED, identity → CANCELLED,</text><text x="632.856" y="672.042" fill="#000" font-size="13" textLength="110.843">логин освобождён</text><line x1="1676.909" y1="707.25" x2="1666.909" y2="703.25" style="stroke:#181818;stroke-width:1;"/><line x1="1676.909" y1="707.25" x2="1666.909" y2="711.25" style="stroke:#181818;stroke-width:1;"/><line x1="607.396" y1="707.25" x2="1677.909" y2="707.25" style="stroke:#181818;stroke-width:1;"/><text x="614.396" y="702.394" fill="#000" font-size="13" textLength="14.46" font-weight="700">17</text><text x="632.856" y="702.394" fill="#000" font-size="13" textLength="249.952">E-mail: приём отменён, доступы удалены</text><line x1="591.396" y1="716.25" x2="1694.909" y2="716.25" style="stroke:#000;stroke-width:1;stroke-dasharray:2,2;"/><text x="596.396" y="729.669" fill="#000" font-size="11" textLength="309.767" font-weight="700">[Учётные записи уже активированы (сотрудник вышел)]</text><polygon points="1022.074,753.438,1032.074,757.438,1022.074,761.438,1026.074,757.438" fill="#181818" style="stroke:#181818;stroke-width:1;stroke-linejoin:miter;stroke-miterlimit:10;"/><line x1="607.396" y1="757.438" x2="1028.074" y2="757.438" style="stroke:#181818;stroke-width:1;"/><text x="614.396" y="752.581" fill="#000" font-size="13" textLength="14.46" font-weight="700">18</text><text x="632.856" y="752.581" fill="#000" font-size="13" textLength="119.971">Событие отклонено</text><polygon points="1562.058,800.141,1572.058,804.141,1562.058,808.141,1566.058,804.141" fill="#181818" style="stroke:#181818;stroke-width:1;stroke-linejoin:miter;stroke-miterlimit:10;"/><line x1="607.396" y1="804.141" x2="1568.058" y2="804.141" style="stroke:#181818;stroke-width:1;"/><text x="614.396" y="791.108" fill="#000" font-size="13" textLength="14.46" font-weight="700">19</text><text x="632.856" y="782.933" fill="#000" font-size="13" textLength="128.572">Инцидент группе HR:</text><text x="632.856" y="799.284" fill="#000" font-size="13" textLength="323.47">отмена после выхода = увольнение (Leaver, волна 2)</text><?plantuml-src VLLTQnj757sVNt7h9mcanAI548SQLjgbDfBiLfk4F0JCM9wwYrUxwkxAYIa5roP9ImAfYg5z2Z5v3br_A56aIluBCtyXlwHdHfArSbfZX3LpxxdtpBtdNdtHYlXsavFFzy9sGd5J93pWBF4INv3hV5TS_F86oTVgGFuZkt8eKv8NQb_sL0SN-Y17wXSva5t2lv7y8Czb2hUUUaNgK3rN7I27weLwIh2bSE_1hoi_CjvEmg3Tt1GHYtUyeCKZtgH8nAqmY4LDn37V5YNXXu-jA0eVKnAr1MFmIho6r-91GWihzPgxG3mc_ONzs1PjGGiL_lqEDxULUM_vMfw0U2fFmFX0FPSzsNyK6D8du7U0yqU3MrqhNK7-BS-17D7gLirubDVh3jlY2T_aCLBAZZowjDbNmSUo2_2fVlUZmDHkf4_oFJv3ypcJgO5-Mrz_C0-sR6EmxFbhvqdZ1nvi2sDq7bv9-BjfmGLUXCI4OqSUZyEKt7bNLqIxNaFO8jun3gxDU2C98mHvemvbtp0T8LnF1vC3zTAurRwfCwPhJiNbPQhG4ZdDbX_k2U7iYY39hQpMdOsojLPsgbN7phEAyKDPuIcFj5uGBaNelaoPlYukcv9gyroJP8f6lQJvUCou0cARU7_2-KpjW-u7JHFktXP8UCbUWNYZ4RQ392vGmkETc05HdEMQ-g7kpeRESHU5Bj2qk8L9wUZJ_X6Lwuvrpx4tx5NNAe74NRJoMBv3txNLA1j5XwXIgbbhzwqgvLoxUFlsdSKyOznFIBwTpG9c9JCBFKAVVbCTWX9WI6NVQ54BPYoLL6COqVoxPnCvVdM6Gu_SyefZtmTFocK2fkgPdijy9fQMtBIAKx3jL9rx3k4ym13_LqaGm00Hm7a8kEt5VDCNnHht_Ctm2SouBix2hrSo2ClM2TyQaGwcvB55jBpm2FFYYTnU0GRt_urKSdNoCTsRxLX4ySsV_73R2txMG5Wpo5kBNsMWhdrz3TKXJVe7aFivXRbUJ6L6dvxzCQ63ebtAIzzUghS0uGpmo3Cz-MHsfnuno1qBuHnBTJYBlgmdJKzNiOd2BcKMBvdfCDGrfA2RPSOAOt2XNc3pJihRDTeHFjRKTGg4__jhn4SvlIOHVTy4rbkhJ_8KM_DNtQVyP-8ypYpLxfXitpnxQAezoW36dVWBQI1E1DUC3sWoqXVuwsAzBw5gexcVeCjV7KFZgTbIANsjNt8wqT8uboQGgmg-AoAKoTXCY5jv9eAjVm40?></g></svg>