<svg xmlns="http://www.w3.org/2000/svg" xmlns:xlink="http://www.w3.org/1999/xlink" version="1.1" data-diagram-type="ACTIVITY" style="width:522px;height:900px;background:#FFFFFF;" width="522px" height="900px" viewBox="0 0 522 900" zoomAndPan="magnify" preserveAspectRatio="none" contentStyleType="text/css"><?plantuml 1.2026.8?><defs/><g font-family="sans-serif" lengthAdjust="spacing"><rect x="20" y="17.455" width="475.71" height="22.641" fill="none" style="stroke:none;"/><ellipse cx="107.813" cy="55.096" rx="10" ry="10" fill="#222" style="stroke:#222;stroke-width:1;"/><rect x="26" y="85.096" width="163.625" height="35.094" fill="#F1F1F1" style="stroke:#181818;stroke-width:0.5;" rx="12.5" ry="12.5"/><text x="36" y="107.553" fill="#000" font-size="12" textLength="143.625">02:00 — запустить сверку</text><line x1="20" y1="17.455" x2="20" y2="879.6" style="stroke:#000;stroke-width:1.5;"/><rect x="199.625" y="140.189" width="278.879" height="35.094" fill="#F1F1F1" style="stroke:#181818;stroke-width:0.5;" rx="12.5" ry="12.5"/><text x="209.625" y="162.646" fill="#000" font-size="12" textLength="258.879">Запросить полный срез сотрудников из HRMS</text><rect x="278.044" y="244.201" width="122.041" height="35.094" fill="#F1F1F1" style="stroke:#181818;stroke-width:0.5;" rx="12.5" ry="12.5"/><text x="288.044" y="266.658" fill="#000" font-size="12" textLength="102.041">Повторить в 03:00</text><rect x="234.919" y="348.213" width="208.291" height="35.094" fill="#F1F1F1" style="stroke:#181818;stroke-width:0.5;" rx="12.5" ry="12.5"/><text x="244.919" y="370.67" fill="#000" font-size="12" textLength="188.291">Отправить алерт сопровождению</text><ellipse cx="339.064" cy="422.26" rx="11" ry="11" fill="none" style="stroke:#222;stroke-width:1;"/><ellipse cx="339.064" cy="422.26" rx="6" ry="6" fill="#222" style="stroke:#222;stroke-width:1;"/><polygon points="298.223,299.295,379.906,299.295,391.906,311.295,379.906,323.295,298.223,323.295,286.223,311.295,298.223,299.295" fill="#F1F1F1" style="stroke:#181818;stroke-width:0.5;stroke-linejoin:miter;stroke-miterlimit:10;"/><text x="343.064" y="334.714" fill="#000" font-size="11" textLength="17.23">нет</text><text x="298.223" y="315.796" fill="#000" font-size="11" textLength="81.684">Ответ получен?</text><text x="391.906" y="308.878" fill="#000" font-size="11" textLength="12.536">да</text><polygon points="294.866,195.283,383.263,195.283,395.263,207.283,383.263,219.283,294.866,219.283,282.866,207.283,294.866,195.283" fill="#F1F1F1" style="stroke:#181818;stroke-width:0.5;stroke-linejoin:miter;stroke-miterlimit:10;"/><text x="343.064" y="230.702" fill="#000" font-size="11" textLength="17.23">нет</text><text x="294.866" y="211.784" fill="#000" font-size="11" textLength="88.397">HRMS ответила?</text><text x="395.263" y="204.866" fill="#000" font-size="11" textLength="12.536">да</text><polygon points="339.064,475.26,351.064,487.26,339.064,499.26,327.064,487.26,339.064,475.26" fill="#F1F1F1" style="stroke:#181818;stroke-width:0.5;stroke-linejoin:miter;stroke-miterlimit:10;"/><rect x="211.865" y="519.26" width="254.398" height="35.094" fill="#F1F1F1" style="stroke:#181818;stroke-width:0.5;" rx="12.5" ry="12.5"/><text x="221.865" y="541.717" fill="#000" font-size="12" textLength="234.398">Сравнить срез с реестром идентичностей</text><rect x="222.893" y="623.271" width="232.344" height="50.188" fill="#F1F1F1" style="stroke:#181818;stroke-width:0.5;" rx="12.5" ry="12.5"/><text x="232.893" y="645.729" fill="#000" font-size="12" textLength="212.344">Сформировать события на обработку</text><text x="232.893" y="660.822" fill="#000" font-size="12" textLength="184.365">(пропущенные HIRE, изменения)</text><rect x="223.162" y="703.412" width="231.805" height="35.094" fill="#F1F1F1" style="stroke:#181818;stroke-width:0.5;" rx="12.5" ry="12.5"/><text x="233.162" y="725.869" fill="#000" font-size="12" textLength="211.805">Сформировать отчёт о расхождениях</text><polygon points="288.963,574.354,389.166,574.354,401.166,586.354,389.166,598.354,288.963,598.354,276.963,586.354,288.963,574.354" fill="#F1F1F1" style="stroke:#181818;stroke-width:0.5;stroke-linejoin:miter;stroke-miterlimit:10;"/><text x="343.064" y="609.772" fill="#000" font-size="11" textLength="12.536">да</text><text x="288.963" y="590.854" fill="#000" font-size="11" textLength="100.203">Есть расхождения?</text><text x="401.166" y="583.937" fill="#000" font-size="11" textLength="17.23">нет</text><polygon points="339.064,758.506,351.064,770.506,339.064,782.506,327.064,770.506,339.064,758.506" fill="#F1F1F1" style="stroke:#181818;stroke-width:0.5;stroke-linejoin:miter;stroke-miterlimit:10;"/><rect x="226.212" y="802.506" width="225.705" height="35.094" fill="#F1F1F1" style="stroke:#181818;stroke-width:0.5;" rx="12.5" ry="12.5"/><text x="236.212" y="824.963" fill="#000" font-size="12" textLength="205.705">Записать результат сверки в журнал</text><ellipse cx="339.064" cy="868.6" rx="11" ry="11" fill="none" style="stroke:#222;stroke-width:1;"/><ellipse cx="339.064" cy="868.6" rx="6" ry="6" fill="#222" style="stroke:#222;stroke-width:1;"/><line x1="193.625" y1="17.455" x2="193.625" y2="879.6" style="stroke:#000;stroke-width:1.5;"/><line x1="494.21" y1="17.455" x2="494.21" y2="879.6" style="stroke:#000;stroke-width:1.5;"/><line x1="107.813" y1="65.096" x2="107.813" y2="85.096" style="stroke:#181818;stroke-width:1;"/><polygon points="103.813,75.096,107.813,85.096,111.813,75.096,107.813,79.096" fill="#181818" style="stroke:#181818;stroke-width:1;stroke-linejoin:miter;stroke-miterlimit:10;"/><line x1="339.064" y1="383.307" x2="339.064" y2="411.26" style="stroke:#181818;stroke-width:1;"/><polygon points="335.064,401.26,339.064,411.26,343.064,401.26,339.064,405.26" fill="#181818" style="stroke:#181818;stroke-width:1;stroke-linejoin:miter;stroke-miterlimit:10;"/><line x1="339.064" y1="323.295" x2="339.064" y2="348.213" style="stroke:#181818;stroke-width:1;"/><polygon points="335.064,338.213,339.064,348.213,343.064,338.213,339.064,342.213" fill="#181818" style="stroke:#181818;stroke-width:1;stroke-linejoin:miter;stroke-miterlimit:10;"/><line x1="391.906" y1="311.295" x2="453.21" y2="311.295" style="stroke:#181818;stroke-width:1;"/><polygon points="449.21,381.26,453.21,391.26,457.21,381.26,453.21,385.26" fill="#181818" style="stroke:#181818;stroke-width:1;stroke-linejoin:miter;stroke-miterlimit:10;"/><line x1="453.21" y1="311.295" x2="453.21" y2="455.26" style="stroke:#181818;stroke-width:1;"/><line x1="453.21" y1="455.26" x2="339.064" y2="455.26" style="stroke:#181818;stroke-width:1;"/><line x1="339.064" y1="455.26" x2="339.064" y2="475.26" style="stroke:#181818;stroke-width:1;"/><polygon points="335.064,465.26,339.064,475.26,343.064,465.26,339.064,469.26" fill="#181818" style="stroke:#181818;stroke-width:1;stroke-linejoin:miter;stroke-miterlimit:10;"/><line x1="339.064" y1="279.295" x2="339.064" y2="299.295" style="stroke:#181818;stroke-width:1;"/><polygon points="335.064,289.295,339.064,299.295,343.064,289.295,339.064,293.295" fill="#181818" style="stroke:#181818;stroke-width:1;stroke-linejoin:miter;stroke-miterlimit:10;"/><line x1="339.064" y1="219.283" x2="339.064" y2="244.201" style="stroke:#181818;stroke-width:1;"/><polygon points="335.064,234.201,339.064,244.201,343.064,234.201,339.064,238.201" fill="#181818" style="stroke:#181818;stroke-width:1;stroke-linejoin:miter;stroke-miterlimit:10;"/><line x1="395.263" y1="207.283" x2="475.21" y2="207.283" style="stroke:#181818;stroke-width:1;"/><polygon points="471.21,340.213,475.21,350.213,479.21,340.213,475.21,344.213" fill="#181818" style="stroke:#181818;stroke-width:1;stroke-linejoin:miter;stroke-miterlimit:10;"/><line x1="475.21" y1="207.283" x2="475.21" y2="487.26" style="stroke:#181818;stroke-width:1;"/><line x1="475.21" y1="487.26" x2="351.064" y2="487.26" style="stroke:#181818;stroke-width:1;"/><polygon points="361.064,483.26,351.064,487.26,361.064,491.26,357.064,487.26" fill="#181818" style="stroke:#181818;stroke-width:1;stroke-linejoin:miter;stroke-miterlimit:10;"/><line x1="339.064" y1="175.283" x2="339.064" y2="195.283" style="stroke:#181818;stroke-width:1;"/><polygon points="335.064,185.283,339.064,195.283,343.064,185.283,339.064,189.283" fill="#181818" style="stroke:#181818;stroke-width:1;stroke-linejoin:miter;stroke-miterlimit:10;"/><line x1="339.064" y1="499.26" x2="339.064" y2="519.26" style="stroke:#181818;stroke-width:1;"/><polygon points="335.064,509.26,339.064,519.26,343.064,509.26,339.064,513.26" fill="#181818" style="stroke:#181818;stroke-width:1;stroke-linejoin:miter;stroke-miterlimit:10;"/><line x1="339.064" y1="673.459" x2="339.064" y2="703.412" style="stroke:#181818;stroke-width:1;"/><polygon points="335.064,693.412,339.064,703.412,343.064,693.412,339.064,697.412" fill="#181818" style="stroke:#181818;stroke-width:1;stroke-linejoin:miter;stroke-miterlimit:10;"/><line x1="339.064" y1="598.354" x2="339.064" y2="623.271" style="stroke:#181818;stroke-width:1;"/><polygon points="335.064,613.271,339.064,623.271,343.064,613.271,339.064,617.271" fill="#181818" style="stroke:#181818;stroke-width:1;stroke-linejoin:miter;stroke-miterlimit:10;"/><line x1="401.166" y1="586.354" x2="465.236" y2="586.354" style="stroke:#181818;stroke-width:1;"/><polygon points="461.236,673.412,465.236,683.412,469.236,673.412,465.236,677.412" fill="#181818" style="stroke:#181818;stroke-width:1;stroke-linejoin:miter;stroke-miterlimit:10;"/><line x1="465.236" y1="586.354" x2="465.236" y2="770.506" style="stroke:#181818;stroke-width:1;"/><line x1="465.236" y1="770.506" x2="351.064" y2="770.506" style="stroke:#181818;stroke-width:1;"/><polygon points="361.064,766.506,351.064,770.506,361.064,774.506,357.064,770.506" fill="#181818" style="stroke:#181818;stroke-width:1;stroke-linejoin:miter;stroke-miterlimit:10;"/><line x1="339.064" y1="738.506" x2="339.064" y2="758.506" style="stroke:#181818;stroke-width:1;"/><polygon points="335.064,748.506,339.064,758.506,343.064,748.506,339.064,752.506" fill="#181818" style="stroke:#181818;stroke-width:1;stroke-linejoin:miter;stroke-miterlimit:10;"/><line x1="339.064" y1="554.354" x2="339.064" y2="574.354" style="stroke:#181818;stroke-width:1;"/><polygon points="335.064,564.354,339.064,574.354,343.064,564.354,339.064,568.354" fill="#181818" style="stroke:#181818;stroke-width:1;stroke-linejoin:miter;stroke-miterlimit:10;"/><line x1="339.064" y1="782.506" x2="339.064" y2="802.506" style="stroke:#181818;stroke-width:1;"/><polygon points="335.064,792.506,339.064,802.506,343.064,792.506,339.064,796.506" fill="#181818" style="stroke:#181818;stroke-width:1;stroke-linejoin:miter;stroke-miterlimit:10;"/><line x1="339.064" y1="837.6" x2="339.064" y2="857.6" style="stroke:#181818;stroke-width:1;"/><polygon points="335.064,847.6,339.064,857.6,343.064,847.6,339.064,851.6" fill="#181818" style="stroke:#181818;stroke-width:1;stroke-linejoin:miter;stroke-miterlimit:10;"/><line x1="107.813" y1="120.189" x2="107.813" y2="125.189" style="stroke:#181818;stroke-width:1;"/><line x1="107.813" y1="125.189" x2="339.064" y2="125.189" style="stroke:#181818;stroke-width:1;"/><line x1="339.064" y1="125.189" x2="339.064" y2="140.189" style="stroke:#181818;stroke-width:1;"/><polygon points="335.064,130.189,339.064,140.189,343.064,130.189,339.064,134.189" fill="#181818" style="stroke:#181818;stroke-width:1;stroke-linejoin:miter;stroke-miterlimit:10;"/><text x="48.928" y="36.141" fill="#000" font-size="18" textLength="115.77">Планировщик</text><text x="328.915" y="36.141" fill="#000" font-size="18" textLength="30.006">IdM</text><?plantuml-src VLExJXjH4EtlLqogU2MGDaGqkqMAA14KD8xIqQo4IP308BmKI2xM9iWWBAn8YTBbyGVNbjSsDhl-XRc_a2_9cTbTaZWYXQtndPapSyuPFpavZTuTHNGOdH-VnTGwQiHHCp9FYRzpwguuvOndd9AxuALBsF843_he1W4Xck0prhSHlgqRaEiWJ54yPuiVj5NVUKErjo_Nd_bhzBg-xcyIKYdVeT1wz3Fv17JNmykGCtV3TuH-Y_uPncMkQzhyZHSIOsZ2EO_SDNBpjcd5qMbi0dyZy7t5uIdAba3hk2wAkwx_npRk8ZJjxRsTjWduYzO13EcYZfT0NfGBe3_1FbFfpf5EG7-iIinbFY6OAg_G7EnJJHbAeOx2P5dtXKVn-qQJQkYqdcaSjXg8Codm3540KaAbYxwasc54_dDm2P4NNFvQGPRhbJfbAzX4g-Y2Bys5PwCAts8nQ04y8LOeW6mE5yUbgxUXjhVYunF1RUuTx9lYE-0V9LhseEs3JAHHAi8hwBref9ZgH0yzkRe2tmlH-BCMzwNJ8hpyQut1FnHb_0SLwxww0_IL5kSyT3SwQK1oXgGlikrGVO7vkyrQILWEv5hdYDifRMtNNwsffu1EVz-t5_vth5v6ptqKT_97MBZBSCNvIakzG9HqAXAg9EviuVfOs1OULN-acTm6Jx1u8lHu4Hfnw1S0?></g></svg>