<svg xmlns="http://www.w3.org/2000/svg" xmlns:xlink="http://www.w3.org/1999/xlink" version="1.1" data-diagram-type="DESCRIPTION" style="width:351px;height:164px;background:#FFFFFF;" width="351px" height="164px" viewBox="0 0 351 164" zoomAndPan="magnify" preserveAspectRatio="none" contentStyleType="text/css"><?plantuml 1.2026.8?><defs/><g font-family="sans-serif" lengthAdjust="spacing"><!--entity PROV--><g class="entity" data-qualified-name="PROV" id="ent0001" data-source-line="2"><rect x="6" y="12" width="183.603" height="47.609" fill="#F1F1F1" style="stroke:#181818;stroke-width:0.5;" rx="2.5" ry="2.5"/><rect x="169.603" y="17" width="15" height="10" fill="#F1F1F1" style="stroke:#181818;stroke-width:0.5;"/><rect x="167.603" y="19" width="4" height="2" fill="#F1F1F1" style="stroke:#181818;stroke-width:0.5;"/><rect x="167.603" y="23" width="4" height="2" fill="#F1F1F1" style="stroke:#181818;stroke-width:0.5;"/><text x="21" y="46.533" fill="#000" font-size="14" textLength="143.603">Сервис провижининга</text></g><!--entity ABS--><g class="entity" data-qualified-name="ABS" id="ent0002" data-source-line="3"><rect x="208.5" y="12" width="127.384" height="47.609" fill="#F1F1F1" style="stroke:#181818;stroke-width:0.5;" rx="2.5" ry="2.5"/><rect x="315.884" y="17" width="15" height="10" fill="#F1F1F1" style="stroke:#181818;stroke-width:0.5;"/><rect x="313.884" y="19" width="4" height="2" fill="#F1F1F1" style="stroke:#181818;stroke-width:0.5;"/><rect x="313.884" y="23" width="4" height="2" fill="#F1F1F1" style="stroke:#181818;stroke-width:0.5;"/><text x="223.5" y="46.533" fill="#000" font-size="14" textLength="87.384">Адаптер АБС</text></g><!--entity API--><g class="entity" data-qualified-name="API" id="ent0003" data-source-line="4"><ellipse cx="185" cy="125" rx="8" ry="8" fill="#F1F1F1" style="stroke:#181818;stroke-width:0.5;"/><text x="145.324" y="156.533" fill="#000" font-size="14" textLength="79.352">REST /users</text></g><g class="link" data-entity-1="ent0002" data-entity-2="ent0003" id="lnk4" data-link-type="association"><path d="M249.595,60.177 C231.672,78.719 207.444,103.782 194.344,117.334" style="stroke:#181818;stroke-width:1;" fill="none"/></g><g class="link" data-entity-1="ent0001" data-entity-2="ent0003" id="lnk5" data-link-type="dependency"><polygon points="175.723,120.605,170.729,112.116,171.656,117.697,166.076,118.624,175.723,120.605" fill="#181818" style="stroke:#181818;stroke-width:1;stroke-linejoin:miter;stroke-miterlimit:10;"/><path d="M114.941,60.04 C124.144,71.915 136.059,86.317 148,98 C156.751,106.562 163.882,112.138 171.656,117.697" style="stroke:#181818;stroke-width:1;stroke-dasharray:7,7;" fill="none"/><text x="150" y="93.495" fill="#000" font-size="13" textLength="58.875">вызывает</text></g><?plantuml-src LOmn3e9044LxJZ7IWucbXOac5bOICFOJiXeYkv3TfQ1JMXiz0ZSWA6gZNc6uaGic9XOl-N_c_pz89MuvGenvacbGd6aKQAbT95AKo25CU9e89dIWyvX1nkEHzRk1JIKrxPvgUhG7eBUHhyxGpV3ikL1b0ohm_ENwhtcYArMcKdGBOEoPoZuvdGLM93IJ6mmPsFuyMC4mKqogxzjRM2O2ZjFBRXTSTz8P60FLxP7kXjgCDstn0G00?></g></svg>